<svg xmlns="http://www.w3.org/2000/svg" height="24" viewBox="0 -960 960 960" width="24"><path d="M479.825-264Q501-264 515.5-278.325q14.5-14.324 14.5-35.5Q530-335 515.675-349.5q-14.324-14.5-35.5-14.5Q459-364 444.5-349.675q-14.5 14.324-14.5 35.5Q430-293 444.325-278.5q14.324 14.5 35.5 14.5ZM481-442q22 0 37.5-15.5T534-495v-140q0-22-15.5-37.5T481-688q-22 0-37.5 15.5T428-635v140q0 22 15.5 37.5T481-442Zm-1 394q-89.64 0-168.48-34.02-78.84-34.02-137.16-92.34-58.32-58.32-92.34-137.16T48-480q0-89.896 34.079-168.961 34.079-79.066 92.5-137.552Q233-845 311.738-878.5 390.476-912 480-912q89.886 0 168.943 33.5Q728-845 786.5-786.5q58.5 58.5 92 137.583 33.5 79.084 33.5 169Q912-390 878.5-311.5t-91.987 136.921q-58.486 58.421-137.552 92.5Q569.896-48 480-48Zm0-106q136.513 0 231.256-94.744Q806-343.487 806-480t-94.744-231.256Q616.513-806 480-806t-231.256 94.744Q154-616.513 154-480t94.744 231.256Q343.487-154 480-154Zm0-326Z"/></svg>